<svg xmlns="http://www.w3.org/2000/svg" xmlns:xlink="http://www.w3.org/1999/xlink" id="Layer_1" data-name="Layer 1" viewBox="0 0 1433.255 593.466"><defs><linearGradient id="linear-gradient" x1="296.192" y1="91.24" x2="202.091" y2="257.901" gradientUnits="userSpaceOnUse"><stop offset=".251" stop-color="#ed1c24"></stop><stop offset="1" stop-color="#b51218"></stop></linearGradient><linearGradient id="linear-gradient-2" x1="397.508" y1="300.03" x2="109.537" y2="456.487" gradientUnits="userSpaceOnUse"><stop offset=".251" stop-color="#f47920"></stop><stop offset=".999" stop-color="#ef3e23"></stop></linearGradient><linearGradient id="linear-gradient-3" x1="358.016" y1="227.341" x2="70.044" y2="383.798" xlink:href="#linear-gradient-2"></linearGradient></defs><g><path d="M471.086,129.328v234.2h-50.132V113.607c0-13.844,11.222-25.066,25.066-25.066,10.891,0,20.159,6.948,23.615,16.659.938,2.623,1.45,5.454,1.45,8.407,0,13.844-11.221,25.066-25.066,25.066-8.911,0-16.746-4.655-21.175-11.664,3.457,9.701,12.724,16.632,23.606,16.632,9.988,0,18.613-5.845,22.634-14.313Z" fill="#f15623"></path><path d="M663.006,237.495l103.121-123.888h-60.52l-90.944,112.067v-112.067h-50.123v249.921h50.123v-111.355l90.944,111.355h63.377l-105.979-126.033Z" fill="#f15623"></path><path d="M1051.823,172.147c-11.343-19.446-26.734-34.663-46.189-45.65-19.464-10.978-40.995-16.467-64.627-16.467-23.399,0-44.886,5.489-64.454,16.467-19.576,10.987-35.089,26.204-46.545,45.65-11.456,19.464-17.188,41.36-17.188,65.705,0,24.588,5.732,46.605,17.188,66.06,11.456,19.456,26.968,34.672,46.545,45.651,19.568,10.987,41.056,16.476,64.454,16.476s44.868-5.489,64.445-16.476c19.568-10.978,35.028-26.195,46.371-45.651,11.334-19.455,17.006-41.472,17.006-66.06,0-24.345-5.672-46.241-17.006-65.705ZM1007.606,281.895c-6.444,12.654-15.399,22.373-26.855,29.182-11.465,6.801-24.71,10.205-39.744,10.205s-28.349-3.405-39.927-10.205c-11.578-6.809-20.584-16.528-27.029-29.182-6.444-12.655-9.676-27.333-9.676-44.043s3.231-31.328,9.676-43.861c6.444-12.533,15.451-22.139,27.029-28.827,11.578-6.679,24.883-10.022,39.927-10.022s28.279,3.344,39.744,10.022c11.456,6.688,20.411,16.294,26.855,28.827,6.444,12.533,9.667,27.159,9.667,43.861s-3.222,31.389-9.667,44.043Z" fill="#f15623"></path><path d="M1280.369,113.252v171.865l-113.509-171.865h-50.123v250.276h50.123v-171.509l113.509,171.509h50.123V113.252h-50.123Z" fill="#f15623"></path></g><g><path d="M432.286,426.395v56.478h-11.328v-56.478h11.328ZM422.819,419.436c-1.025-1.023-1.537-2.292-1.537-3.802s.512-2.791,1.537-3.843c1.024-1.052,2.292-1.578,3.803-1.578s2.791.526,3.843,1.578c1.052,1.052,1.578,2.334,1.578,3.843s-.526,2.779-1.578,3.802c-1.052,1.026-2.334,1.537-3.843,1.537s-2.779-.511-3.803-1.537Z" fill="#f15623"></path><path d="M501.71,482.873h-11.328l-25.65-38.757v38.757h-11.328v-56.558h11.328l25.65,38.839v-38.839h11.328v56.558Z" fill="#f15623"></path><path d="M531.687,481.416c-3.156-1.347-5.651-3.289-7.485-5.825-1.835-2.536-2.779-5.529-2.832-8.982h12.137c.162,2.32.983,4.154,2.468,5.503,1.483,1.348,3.519,2.023,6.108,2.023,2.642,0,4.719-.633,6.231-1.901,1.51-1.267,2.265-2.925,2.265-4.977,0-1.672-.513-3.047-1.537-4.127-1.025-1.078-2.306-1.928-3.843-2.549-1.537-.62-3.655-1.308-6.352-2.063-3.668-1.078-6.648-2.144-8.94-3.196-2.294-1.052-4.262-2.642-5.907-4.774-1.647-2.13-2.468-4.976-2.468-8.537,0-3.344.835-6.257,2.508-8.738,1.672-2.481,4.018-4.382,7.04-5.705,3.02-1.321,6.472-1.982,10.356-1.982,5.826,0,10.559,1.416,14.201,4.248,3.641,2.832,5.65,6.784,6.028,11.854h-12.46c-.108-1.942-.931-3.547-2.468-4.815-1.537-1.267-3.574-1.901-6.108-1.901-2.213,0-3.979.566-5.3,1.699-1.322,1.133-1.983,2.778-1.983,4.935,0,1.511.498,2.765,1.497,3.763.998.999,2.238,1.808,3.723,2.427,1.483.621,3.573,1.335,6.27,2.145,3.667,1.079,6.661,2.158,8.981,3.236,2.319,1.08,4.316,2.699,5.988,4.855,1.671,2.158,2.508,4.99,2.508,8.496,0,3.022-.783,5.826-2.347,8.415-1.565,2.588-3.857,4.652-6.877,6.19-3.022,1.537-6.609,2.306-10.762,2.306-3.938,0-7.485-.674-10.64-2.023Z" fill="#f15623"></path><path d="M616.686,472.112h-22.494l-3.722,10.761h-11.894l20.309-56.558h13.189l20.309,56.558h-11.975l-3.722-10.761ZM613.611,463.049l-8.173-23.627-8.172,23.627h16.344Z" fill="#f15623"></path><path d="M698.246,482.873h-11.328l-25.65-38.757v38.757h-11.328v-56.558h11.328l25.65,38.839v-38.839h11.328v56.558Z" fill="#f15623"></path><path d="M780.451,482.873l-20.552-25.164v25.164h-11.328v-56.478h11.328v25.326l20.552-25.326h13.674l-23.303,27.996,23.95,28.482h-14.322Z" fill="#f15623"></path><path d="M846.8,472.112h-22.494l-3.722,10.761h-11.894l20.309-56.558h13.189l20.309,56.558h-11.975l-3.722-10.761ZM843.726,463.049l-8.173-23.627-8.172,23.627h16.344Z" fill="#f15623"></path><path d="M924.961,426.395l-19.096,36.816v19.662h-11.328v-19.662l-19.176-36.816h12.785l12.137,25.812,12.056-25.812h12.622Z" fill="#f15623"></path><path d="M989.773,482.873h-11.328l-25.65-38.757v38.757h-11.328v-56.558h11.328l25.65,38.839v-38.839h11.328v56.558Z" fill="#f15623"></path><path d="M1045.52,472.112h-22.494l-3.722,10.761h-11.894l20.309-56.558h13.189l20.309,56.558h-11.975l-3.722-10.761ZM1042.446,463.049l-8.173-23.627-8.172,23.627h16.344Z" fill="#f15623"></path><path d="M1110.654,482.873l-20.552-25.164v25.164h-11.328v-56.478h11.328v25.326l20.552-25.326h13.674l-23.303,27.996,23.95,28.482h-14.322Z" fill="#f15623"></path><path d="M1153.7,473.892h18.61v8.981h-29.937v-56.478h11.328v47.497Z" fill="#f15623"></path><path d="M1224.095,472.112h-22.494l-3.722,10.761h-11.894l20.309-56.558h13.189l20.309,56.558h-11.975l-3.722-10.761ZM1221.02,463.049l-8.173-23.627-8.172,23.627h16.344Z" fill="#f15623"></path><path d="M1286.479,482.873l-12.461-22.008h-5.34v22.008h-11.328v-56.478h21.199c4.369,0,8.091.769,11.166,2.306,3.076,1.538,5.381,3.615,6.919,6.231,1.537,2.617,2.306,5.543,2.306,8.779,0,3.722-1.08,7.08-3.237,10.074-2.158,2.994-5.368,5.057-9.628,6.19l13.512,22.898h-13.108ZM1268.677,452.369h9.466c3.075,0,5.367-.741,6.878-2.225,1.51-1.483,2.265-3.546,2.265-6.19,0-2.589-.756-4.598-2.265-6.028-1.511-1.429-3.803-2.145-6.878-2.145h-9.466v16.588Z" fill="#f15623"></path><path d="M1330.494,426.395v56.478h-11.328v-56.478h11.328Z" fill="#f15623"></path></g><g><path d="M239.621,252.335c-26.093,0-50.358,7.836-70.564,21.284,18.176-9.968,39.044-15.637,61.239-15.637,35.924,0,68.379,14.854,91.556,38.752-8.858,9.132-19.065,16.939-30.307,23.103-.006.006-.015.009-.022.012-.845.466-1.694.92-2.552,1.361-.323.168-.65.336-.976.5-.323.165-.65.329-.979.491v.003c-.081.04-.161.081-.246.121-.245.121-.491.242-.737.361-.106.053-.211.106-.317.155-.131.062-.258.124-.385.186-.096.044-.19.09-.286.134v.003c-.249.118-.497.236-.746.351-.075.034-.146.068-.221.103-.342.159-.684.314-1.026.472-.668.305-1.339.6-2.011.892-.298.127-.597.258-.898.385-.298.127-.6.255-.901.379-.603.255-1.206.5-1.815.74-.911.367-1.828.718-2.751,1.057-.305.115-.612.227-.923.339-.615.224-1.234.441-1.855.656-.619.218-1.243.426-1.868.628-.267.09-.538.177-.805.261-.703.224-1.408.444-2.114.659-.224.065-.451.134-.677.202-.693.202-1.389.401-2.089.594-.637.18-1.277.351-1.918.516-.32.084-.643.165-.964.246-.643.165-1.29.32-1.936.469-.323.078-.65.152-.973.224-.65.149-1.299.289-1.955.426-.326.068-.653.137-.979.202-.326.065-.656.131-.985.196-.298.056-.597.115-.898.171-.053.006-.109.019-.165.028-.631.121-1.265.233-1.902.336-.314.053-.625.106-.939.155-.05.006-.099.016-.149.025-.631.103-1.265.199-1.902.289-.333.047-.668.096-1.001.14-.336.047-.671.09-1.007.134-.261.034-.522.065-.786.096-.137.019-.27.034-.407.05-.255.031-.513.062-.768.09-.354.04-.709.078-1.063.115-.236.025-.475.05-.712.071-.326.034-.653.065-.982.093-.46.04-.923.081-1.386.118-.329.025-.659.05-.991.075-.339.025-.681.05-1.023.071-.261.019-.525.034-.789.047-.761.047-1.526.084-2.291.112-.345.012-.687.025-1.032.037-.687.025-1.377.04-2.07.05-.345.003-.69.009-1.038.012-.171.003-.345.006-.519.003-.171.003-.345.003-.519.003-34.771,0-66.29-13.915-89.297-36.477v-.003c-.298-.292-.594-.584-.886-.877-.361-.361-.718-.724-1.075-1.088-.1-.103-.199-.205-.298-.308-22.27-22.96-35.98-54.271-35.98-88.784,0-.491.003-.982.009-1.473,0-.112.003-.224.003-.333.006-.379.012-.758.022-1.134,0-.056.003-.112.003-.168.003-.183.009-.364.015-.544.009-.379.022-.755.037-1.131.016-.472.034-.945.059-1.417.012-.301.028-.606.047-.911.019-.379.044-.758.065-1.138.031-.472.065-.942.102-1.411.003-.093.009-.187.019-.28.037-.497.078-.995.124-1.489.041-.485.087-.97.137-1.451.016-.152.031-.305.047-.454.043-.438.093-.873.143-1.312.115-1.013.242-2.02.382-3.027.015-.109.031-.218.047-.326.062-.454.131-.908.199-1.361.006-.053.015-.106.025-.159.075-.494.152-.988.236-1.483.087-.525.177-1.051.27-1.576.068-.376.137-.755.208-1.131.037-.202.075-.404.115-.603.012-.071.025-.14.04-.208.075-.392.152-.78.233-1.172.003-.012.006-.025.009-.037.087-.435.177-.87.274-1.302.025-.121.05-.239.078-.357.102-.472.208-.945.317-1.414.09-.395.183-.789.28-1.181.012-.062.028-.121.044-.183.037-.159.075-.314.115-.472.103-.413.205-.824.311-1.234.103-.395.205-.789.311-1.181,0-.009.003-.016.006-.022.047-.18.096-.361.143-.538.252-.92.513-1.837.783-2.748.009-.031.019-.065.028-.096.146-.491.295-.979.448-1.467.155-.5.314-.998.475-1.492.131-.404.261-.808.398-1.209.05-.149.099-.302.155-.454.109-.323.217-.646.333-.967.062-.187.127-.37.193-.556.143-.401.286-.802.435-1.203.012-.034.025-.072.037-.106.165-.448.333-.895.5-1.343.006-.019.015-.037.022-.056.177-.463.354-.923.535-1.383.012-.034.028-.065.037-.099.19-.472.379-.945.572-1.414.162-.401.329-.802.5-1.2.18-.438.367-.877.56-1.312.102-.246.208-.488.317-.73.152-.348.308-.693.463-1.038.193-.423.385-.849.584-1.271.274-.594.556-1.184.842-1.775.186-.382.373-.768.562-1.147.177-.357.358-.715.538-1.069.071-.143.146-.286.221-.429.196-.382.392-.765.594-1.144.177-.336.354-.674.538-1.01.143-.264.283-.528.429-.789.951-1.744,1.946-3.466,2.981-5.159.236-.389.475-.777.715-1.159.261-.42.522-.833.786-1.246.348-.541.699-1.082,1.057-1.619.221-.336.444-.668.668-1.001.497-.737,1.001-1.464,1.514-2.188.158-.227.32-.454.482-.681.426-.594.855-1.184,1.293-1.769.165-.227.333-.448.5-.671.783-1.044,1.585-2.076,2.403-3.096.19-.233.379-.469.569-.703.202-.249.407-.497.612-.746.612-.743,1.234-1.479,1.865-2.207.211-.245.419-.488.634-.727.423-.485.848-.964,1.28-1.439.214-.239.432-.476.65-.712.28-.308.566-.612.848-.917.367-.395.74-.786,1.113-1.175.022-.022.041-.04.059-.062.432-.448.864-.892,1.302-1.33.227-.23.454-.457.681-.684s.457-.451.687-.678c.227-.224.457-.448.69-.671.23-.221.463-.445.693-.665.488-.463.979-.923,1.476-1.38.684-.634,1.377-1.259,2.076-1.874.243-.211.482-.423.727-.634.183-.159.367-.317.55-.476.118-.103.236-.205.357-.305.183-.159.37-.317.556-.472.246-.208.491-.413.74-.619.246-.205.494-.41.743-.612.249-.205.497-.407.749-.609.584-.469,1.172-.936,1.765-1.396.389-.305.78-.603,1.175-.898,1.11-.842,2.232-1.666,3.369-2.471.311-.221.618-.438.929-.653.696-.482,1.395-.957,2.101-1.427,20.206-13.449,44.471-21.284,70.564-21.284,70.436,0,127.536,57.099,127.536,127.536,0,30.696-10.844,58.859-28.912,80.867-23.006-22.565-54.529-36.48-89.3-36.48Z" fill="url(#linear-gradient)"></path><path d="M321.852,296.735c-8.858,9.132-19.065,16.939-30.307,23.103-.006.006-.015.009-.022.012-.845.466-1.694.92-2.552,1.361-.323.168-.65.336-.976.5-.323.165-.65.329-.979.491v.003c-.081.04-.161.081-.246.121-.245.121-.491.242-.737.361-.106.053-.211.106-.317.155-.131.062-.258.124-.385.186-.096.044-.19.09-.286.134v.003c-.249.118-.497.236-.746.351-.075.034-.146.068-.221.103-.342.159-.684.314-1.026.472-.668.305-1.339.6-2.011.892-.298.127-.597.258-.898.385-.298.127-.6.255-.901.379-.603.255-1.206.5-1.815.74-.911.367-1.828.718-2.751,1.057-.305.115-.612.227-.923.339-.615.224-1.234.441-1.855.656-.619.218-1.243.426-1.868.628-.267.09-.538.177-.805.261-.703.224-1.408.444-2.114.659-.224.065-.451.134-.677.202-.693.202-1.389.401-2.089.594-.637.18-1.277.351-1.918.516-.32.084-.643.165-.964.246-.643.165-1.29.32-1.936.469-.323.078-.65.152-.973.224-.65.149-1.299.289-1.955.426-.326.068-.653.137-.979.202-.326.065-.656.131-.985.196-.298.056-.597.115-.898.171-.053.006-.109.019-.165.028-.631.121-1.265.233-1.902.336-.314.053-.625.106-.939.155-.05.006-.099.016-.149.025-.631.103-1.265.199-1.902.289-.333.047-.668.096-1.001.14-.336.047-.671.09-1.007.134-.261.034-.522.065-.786.096-.137.019-.27.034-.407.05-.255.031-.513.062-.768.09-.354.04-.709.078-1.063.115-.236.025-.475.05-.712.071-.326.034-.653.065-.982.093-.46.04-.923.081-1.386.118-.329.025-.659.05-.991.075-.339.025-.681.05-1.023.071-.261.019-.525.034-.789.047-.761.047-1.526.084-2.291.112-.345.012-.687.025-1.032.037-.687.025-1.377.04-2.07.05-.345.003-.69.009-1.038.012-.171.003-.345.006-.519.003-.171.003-.345.003-.519.003-34.771,0-66.29-13.915-89.297-36.477v-.003c8.031-9.784,17.49-18.353,28.057-25.384,18.176-9.968,39.044-15.637,61.239-15.637,35.924,0,68.379,14.854,91.556,38.752Z" fill="#f15623"></path><path d="M357.832,385.518c0,44.331-22.618,83.382-56.947,106.233-20.212,13.461-44.484,21.303-70.589,21.303-70.436,0-127.536-57.099-127.536-127.536,0-30.696,10.844-58.859,28.912-80.867.97.951,1.955,1.89,2.956,2.804,22.717,20.908,53.04,33.677,86.344,33.677,26.087,0,50.345-7.833,70.551-21.281.006-.003.016-.006.022-.012,11.242-6.163,21.449-13.971,30.307-23.103,22.27,22.963,35.98,54.271,35.98,88.784Z" fill="url(#linear-gradient-2)"></path><path d="M321.852,296.735c-8.858,9.132-19.065,16.939-30.307,23.103-.006.006-.015.009-.022.012-.845.466-1.694.92-2.552,1.361-.323.168-.65.336-.976.5-.323.165-.65.329-.979.491v.003c-.081.04-.161.081-.246.121-.245.121-.491.242-.737.361-.106.053-.211.106-.317.155-.131.062-.258.124-.385.186-.096.044-.19.09-.286.134v.003c-.249.118-.497.236-.746.351-.075.034-.146.068-.221.103-.342.159-.684.314-1.026.472-.668.305-1.339.6-2.011.892-.298.127-.597.258-.898.385-.298.127-.6.255-.901.379-.603.255-1.206.5-1.815.74-.911.367-1.828.718-2.751,1.057-.305.115-.612.227-.923.339-.615.224-1.234.441-1.855.656-.619.218-1.243.426-1.868.628-.267.09-.538.177-.805.261-.703.224-1.408.444-2.114.659-.224.065-.451.134-.677.202-.693.202-1.389.401-2.089.594-.637.18-1.277.351-1.918.516-.32.084-.643.165-.964.246-.643.165-1.29.32-1.936.469-.323.078-.65.152-.973.224-.65.149-1.299.289-1.955.426-.326.068-.653.137-.979.202-.326.065-.656.131-.985.196-.298.056-.597.115-.898.171-.053.006-.109.019-.165.028-.631.121-1.265.233-1.902.336-.314.053-.625.106-.939.155-.05.006-.099.016-.149.025-.631.103-1.265.199-1.902.289-.333.047-.668.096-1.001.14-.336.047-.671.09-1.007.134-.261.034-.522.065-.786.096-.137.019-.27.034-.407.05-.255.031-.513.062-.768.09-.354.04-.709.078-1.063.115-.236.025-.475.05-.712.071-.326.034-.653.065-.982.093-.46.04-.923.081-1.386.118-.329.025-.659.05-.991.075-.339.025-.681.05-1.023.071-.261.019-.525.034-.789.047-.761.047-1.526.084-2.291.112-.345.012-.687.025-1.032.037-.687.025-1.377.04-2.07.05-.345.003-.69.009-1.038.012-.171.003-.345.006-.519.003-.171.003-.345.003-.519.003-34.771,0-66.29-13.915-89.297-36.477v-.003c-.298-.292-.594-.584-.886-.877-.361-.361-.718-.724-1.075-1.088-.1-.103-.199-.205-.298-.308,8.858-9.132,19.071-16.945,30.317-23.112,18.176-9.968,39.044-15.637,61.239-15.637,35.924,0,68.379,14.854,91.556,38.752Z" fill="url(#linear-gradient-3)"></path><g><path d="M138.74,296.731c.099.103.199.205.298.308-.103-.103-.199-.202-.298-.305-.003-.003,0-.003,0-.003Z" fill="#f15623"></path><path d="M230.296,335.48c.348,0,.693,0,1.038-.003-.345.006-.69.006-1.038.006-34.771,0-66.29-13.915-89.297-36.477-.003-.003,0-.003,0-.003,23.006,22.562,54.526,36.477,89.297,36.477Z" fill="#f15623"></path><path d="M235.474,335.378c1.374-.056,2.741-.131,4.103-.23-1.361.103-2.729.177-4.103.23Z" fill="#f15623"></path><path d="M274.677,327.545c.923-.342,1.84-.696,2.751-1.057-.911.367-1.828.718-2.751,1.057Z" fill="#f15623"></path><path d="M281.042,324.984c2.692-1.169,5.337-2.427,7.929-3.773-2.592,1.349-5.237,2.608-7.929,3.773Z" fill="#f15623"></path><path d="M291.523,319.85c-.845.466-1.694.92-2.552,1.361.855-.444,1.706-.898,2.552-1.361Z" fill="#f15623"></path></g></g></svg>